# xmcd
#
# Track frame offsets:
#	150
#	19288
#	39466
#	58406
#	75547
#	90035
#	110062
#	129658
#	145725
#	162758
#	185147
#	202711
#	223582
#	242000
#
# Disc length: 3474 seconds
#
# Revision: 0
# Processed by: cddbd v1.5.2PL0 Copyright (c) Steve Scherf et al.
# Submitted via: EasyCDDAExtractor 15.3.0.1
#
DISCID=bd0d900e
DTITLE=Ednita Nazario - Romances
DYEAR=2013
DGENRE=Latin
TTITLE0=Como Antes
TTITLE1=Gata Sin Luna
TTITLE2=Mas Que Un Amigo
TTITLE3=No Me Digas Adios
TTITLE4=Mirame
TTITLE5=Quiero Que Me Hagas El Amor
TTITLE6=Tanto Nos Amamos
TTITLE7=Te Quiero
TTITLE8=Templo De Mi Corazon
TTITLE9=Tu Sabes Bien
TTITLE10=Un Corazon Hecho Pedazos
TTITLE11=Y Te Vas
TTITLE12=Un Beso
TTITLE13=Dime Tu
EXTD=
EXTT0=
EXTT1=
EXTT2=
EXTT3=
EXTT4=
EXTT5=
EXTT6=
EXTT7=
EXTT8=
EXTT9=
EXTT10=
EXTT11=
EXTT12=
EXTT13=
PLAYORDER=
